<svg width="91" height="65" viewBox="0 0 91 65" fill="none" xmlns="http://www.w3.org/2000/svg">
<g clip-path="url(#clip0)">
<path d="M60 23.4C59.9 22.5 59.3 21.8 58.6 21.3C57.9 20.8 57 20.6 56.2 20.8C55.4 21 54.6 21.5 54.1 22.2C49.4 29.2 39.4 29.4 39.3 29.4H39C26.3 29.4 21.3 40.2 21.1 40.7C20.4 42.3 21.1 44.2 22.8 44.9C24.6 45.7 26.4 44.8 27.1 43.3C27.4 42.6 30.4 36.7 37.6 36V48.7C37.3 51.4 36 53.5 33.7 55.1C31.3 56.8 28 57.6 24 57.6C19.2 57.6 15.3 56 12.4 52.7C9.5 49.5 8 44.8 8 38.8V24.1C8.2 18.8 9.7 14.6 12.4 11.7C15.3 8.5 19.2 6.8 24 6.8C28 6.8 31.3 7.7 33.7 9.3C36.1 11 37.4 13.2 37.6 16.1V16.4C37.6 18.5 39.4 20.3 41.5 20.3C43.7 20.3 45.4 18.6 45.4 16.4V16C44.9 11.2 42.6 7.3 38.6 4.4C34.8 1.4 29.7 0 23.8 0C16.7 0 10.9 2.3 6.6 7C2.5 11.3 0.3 17 0 24C0 24.2 0 24.5 0 24.7C0 24.9 0 25.2 0 25.4V38.7C0 46.3 2.2 52.5 6.6 57.2C11 61.8 16.8 64.2 23.8 64.2C29.7 64.2 34.8 62.8 38.7 59.9C42.3 57.3 44.6 53.7 45.3 49.3L45.4 34.9C49.8 33.8 55.6 31.3 59.3 25.8C59.9 25.1 60.1 24.2 60 23.4Z" fill="#FF5730"/>
<path d="M50.8 61.3C50.4 60.9 50 60.3 50 59.6C50 58.4 50.9 57.5 52.1 57.5C52.7 57.5 53.1 57.7 53.5 58C54.7 59.3 55.9 59.9 57.6 59.9C60.1 59.9 61.7 58.3 61.7 54.9V40.5C61.7 39.3 62.7 38.3 63.9 38.3C65.1 38.3 66.1 39.3 66.1 40.5V55.2C66.1 58.2 65.2 60.4 63.7 61.9C62.2 63.4 60.1 64.1 57.6 64.1C54.7 64.1 52.4 62.9 50.8 61.3Z" fill="#FF5730"/>
<path d="M71.7 60.9C71.2 60.5 70.8 59.9 70.8 59.2C70.8 58 71.7 57.1 72.9 57.1C73.5 57.1 73.9 57.3 74.2 57.5C76.3 59.2 78.5 60.1 81.3 60.1C84 60.1 85.8 58.8 85.8 56.9V56.8C85.8 55 84.8 54 80.1 52.9C74.7 51.6 71.7 50 71.7 45.4V45.3C71.7 41 75.3 38 80.3 38C83.5 38 86 38.8 88.3 40.3C88.8 40.6 89.3 41.2 89.3 42.1C89.3 43.3 88.4 44.2 87.2 44.2C86.8 44.2 86.4 44.1 86 43.9C84.1 42.6 82.2 42 80.2 42C77.6 42 76.1 43.3 76.1 45V45.1C76.1 47 77.3 47.9 82.1 49.1C87.4 50.4 90.2 52.3 90.2 56.5V56.6C90.2 61.3 86.5 64.1 81.2 64.1C77.8 64.1 74.5 63 71.7 60.9Z" fill="#FF5730"/>
</g>
<defs>
<clipPath id="clip0">
<rect width="90.2" height="64.1" fill="white"/>
</clipPath>
</defs>
</svg>
